# xmcd
#
# Track frame offsets:
#	150
#	17568
#	30831
#	53821
#	65971
#	88558
#	107274
#	122488
#	138024
#	159136
#	173467
#	189299
#	209417
#	231412
#	249828
#	269297
#	282226
#
# Disc length: 4058 seconds
#
# Revision: 0
# Processed by: cddbd v1.5.2PL0 Copyright (c) Steve Scherf et al.
# Submitted via: audiograbber 1.83.01
#
DISCID=d00fd811
DTITLE=Deák Bill Gyula - Hatvan Csapás
DYEAR=2008
DGENRE=Blues
TTITLE0=Hatvan Csapás
TTITLE1=A nagy generáció temetésére
TTITLE2=Kéne egy üveg bor
TTITLE3=Lát-e,aki lát
TTITLE4=Jó volna
TTITLE5=Péntek esti blues
TTITLE6=Anyám és apám
TTITLE7=Az országút elõttem
TTITLE8=A titkos lány
TTITLE9=Hóhér blues
TTITLE10=Bill kapitány imája
TTITLE11=Most vagy soha
TTITLE12=Angyalok asztalodon
TTITLE13=Intések fiamnak
TTITLE14=Vagyok eladó
TTITLE15=Soha és mindig
TTITLE16=A zöld,a bíbor,a fekete
EXTD=
EXTT0=
EXTT1=
EXTT2=
EXTT3=
EXTT4=
EXTT5=
EXTT6=
EXTT7=
EXTT8=
EXTT9=
EXTT10=
EXTT11=
EXTT12=
EXTT13=
EXTT14=
EXTT15=
EXTT16=
PLAYORDER=
